<svg width="328" height="180" viewBox="0 0 328 180" fill="none" xmlns="http://www.w3.org/2000/svg">
<g opacity="0.65">
<path d="M201.734 0.448064C200.649 -0.225294 199.136 -0.164078 197.457 0.797861L117.258 48.5538C113.987 50.4339 111.302 55.0687 111.302 58.8465V131.718C111.302 133.755 112.09 135.137 113.323 135.697L121.097 139.676L208.345 88.1507L209.482 4.38327L201.734 0.439317V0.448064Z" fill="#5378B2"/>
<g style="mix-blend-mode:multiply" opacity="0.4">
<path d="M197.457 0.797888L117.258 48.5538C115.386 49.6294 113.716 51.597 112.623 53.792L120.808 57.2375L209.482 4.40079L201.734 0.456838C200.649 -0.21652 199.136 -0.155304 197.457 0.806635V0.797888Z" fill="#BABCBE"/>
</g>
<path d="M205.336 4.82052L125.137 52.5764C121.866 54.4566 119.182 59.0914 119.182 62.8692V135.74C119.182 139.518 121.866 141.084 125.146 139.203L205.328 91.8061C208.607 89.9347 211.292 85.3173 211.292 81.5395V8.26602C211.292 4.48822 208.607 2.94037 205.336 4.82052Z" fill="#6288D2"/>
<path d="M119.182 135.741C119.182 139.518 121.866 141.084 125.146 139.203L205.328 91.8061C208.607 89.9347 211.292 85.3174 211.292 81.5396V18.9698L119.182 74.0277V135.741Z" fill="#E4F4FC"/>
<path d="M196.373 22.5018L141.062 56.1041V50.6745L196.373 17.0721V22.5018Z" fill="white"/>
<path d="M204.637 12.5335C204.637 12.9095 204.331 13.408 203.946 13.6353C203.57 13.8627 203.255 13.7403 203.255 13.3642C203.255 12.9882 203.561 12.4897 203.946 12.2624C204.331 12.035 204.637 12.1574 204.637 12.5335Z" fill="white"/>
<path d="M204.637 14.7109C204.637 15.0957 204.331 15.5854 203.946 15.8128C203.57 16.0401 203.255 15.9177 203.255 15.5417C203.255 15.1656 203.561 14.6672 203.946 14.4398C204.331 14.2124 204.637 14.3349 204.637 14.7109Z" fill="white"/>
<path d="M204.637 17.0808C204.637 17.4568 204.331 17.9553 203.946 18.1826C203.57 18.41 203.255 18.2876 203.255 17.9028C203.255 17.518 203.561 17.0283 203.946 16.8009C204.331 16.5736 204.637 16.696 204.637 17.072V17.0808Z" fill="white"/>
<g filter="url(#filter0_d_204_55935)">
<path d="M138.6 67.0436L216.778 21.9077C217.546 21.4643 218.282 21.3913 218.825 21.7049C219.368 22.0184 219.673 22.6926 219.673 23.5794L219.673 40.2964C219.673 41.1831 219.368 42.2096 218.825 43.1501C218.282 44.0906 217.546 44.8681 216.778 45.3115L138.6 90.4474C137.832 90.8907 137.096 90.9637 136.553 90.6502C136.01 90.3367 135.705 89.6624 135.705 88.7757L135.705 72.0587C135.705 71.1719 136.01 70.1454 136.553 69.2049C137.096 68.2644 137.832 67.4869 138.6 67.0436V67.0436Z" fill="white"/>
</g>
<path d="M175.662 50.995L160.606 59.6878C159.646 60.2418 158.869 61.589 158.869 62.6969C158.869 63.8048 159.646 64.2539 160.606 63.6999L175.662 55.0071C176.622 54.4531 177.4 53.1059 177.4 51.998C177.4 50.8901 176.622 50.441 175.662 50.995Z" fill="#BCDCFB"/>
<path d="M186.086 53.6697L160.606 68.3807C159.646 68.9346 158.869 70.2818 158.869 71.3897C158.869 72.4976 159.646 72.9467 160.606 72.3927L186.086 57.6818C187.046 57.1278 187.823 55.7806 187.823 54.6727C187.823 53.5648 187.046 53.1157 186.086 53.6697Z" fill="#DEE9FC"/>
<path d="M154.236 69.7182C154.236 64.3633 150.476 62.1928 145.839 64.8702C141.201 67.5477 137.442 74.0592 137.442 79.414C137.442 84.7689 141.201 86.9394 145.839 84.262C150.476 81.5845 154.236 75.073 154.236 69.7182Z" fill="#82AAE6"/>
<path d="M145.318 78.0057C146.036 77.5905 146.735 76.9097 147.301 76.0715L149.082 77.0996L149.654 76.1076L147.873 75.0792C148.321 74.1527 148.559 73.1916 148.549 72.3526C148.54 71.5135 148.283 70.8461 147.82 70.4589C147.357 70.0717 146.716 69.9877 146.002 70.2206C145.287 70.4534 144.541 70.9893 143.884 71.7411C143.228 72.4928 142.7 73.4159 142.387 74.3601C142.074 75.3042 141.994 76.2137 142.16 76.9403C142.326 77.6669 142.729 78.1677 143.302 78.3612C143.876 78.5546 144.586 78.4293 145.318 78.0057ZM145.318 71.4566C145.799 71.1789 146.269 71.0721 146.669 71.1498C147.069 71.2275 147.381 71.4861 147.565 71.893C147.749 72.2999 147.797 72.8368 147.703 73.4357C147.609 74.0347 147.378 74.6689 147.037 75.258C146.697 75.8472 146.264 76.3649 145.792 76.7456C145.32 77.1264 144.831 77.3531 144.387 77.3971C143.942 77.4411 143.563 77.3005 143.295 76.9929C143.028 76.6854 142.885 76.2248 142.885 75.6693C142.885 74.9245 143.142 74.0622 143.598 73.2721C144.054 72.4821 144.673 71.829 145.318 71.4566Z" fill="white"/>
<g filter="url(#filter1_d_204_55935)">
<path d="M189.4 68.04L111.222 113.176C109.623 114.099 108.327 116.344 108.327 118.191L108.327 134.908C108.327 136.754 109.623 137.503 111.222 136.58L189.4 91.4438C190.999 90.5205 192.295 88.2752 192.295 86.4287L192.295 69.7117C192.295 67.8652 190.999 67.1167 189.4 68.04Z" fill="white"/>
</g>
<path d="M148.284 97.1276L133.228 105.82C132.268 106.374 131.49 107.722 131.49 108.829C131.49 109.937 132.268 110.386 133.228 109.832L148.284 101.14C149.244 100.586 150.021 99.2385 150.021 98.1306C150.021 97.0227 149.244 96.5736 148.284 97.1276Z" fill="#BCDCFB"/>
<path d="M158.708 99.8022L133.228 114.513C132.269 115.067 131.491 116.414 131.491 117.522C131.491 118.63 132.269 119.079 133.228 118.525L158.708 103.814C159.668 103.26 160.445 101.913 160.445 100.805C160.445 99.6974 159.668 99.2483 158.708 99.8022Z" fill="#DEE9FC"/>
<path d="M126.858 115.851C126.858 110.496 123.098 108.325 118.461 111.003C113.823 113.68 110.064 120.192 110.064 125.547C110.064 130.901 113.823 133.072 118.461 130.395C123.098 127.717 126.858 121.206 126.858 115.851Z" fill="#82AAE6"/>
<path d="M117.939 124.138C118.658 123.723 119.356 123.042 119.923 122.204L121.704 123.232L122.276 122.24L120.495 121.212C120.943 120.285 121.181 119.324 121.171 118.485C121.162 117.646 120.905 116.979 120.442 116.591C119.979 116.204 119.338 116.12 118.624 116.353C117.909 116.586 117.162 117.122 116.506 117.874C115.85 118.625 115.322 119.548 115.009 120.493C114.696 121.437 114.616 122.346 114.782 123.073C114.948 123.799 115.351 124.3 115.924 124.494C116.498 124.687 117.208 124.562 117.939 124.138ZM117.939 117.589C118.421 117.311 118.891 117.205 119.291 117.282C119.691 117.36 120.002 117.619 120.187 118.026C120.371 118.432 120.419 118.969 120.325 119.568C120.231 120.167 119.999 120.801 119.659 121.391C119.319 121.98 118.886 122.497 118.414 122.878C117.942 123.259 117.453 123.486 117.009 123.53C116.564 123.574 116.184 123.433 115.917 123.125C115.65 122.818 115.507 122.357 115.507 121.802C115.507 121.057 115.764 120.195 116.22 119.405C116.676 118.615 117.294 117.962 117.939 117.589Z" fill="white"/>
</g>
<path d="M103.509 167.047V177H102.183L97.1719 169.323V177H95.8525V167.047H97.1719L102.203 174.744V167.047H103.509ZM105.32 173.384V173.227C105.32 172.693 105.398 172.199 105.553 171.743C105.708 171.283 105.931 170.884 106.223 170.547C106.514 170.205 106.868 169.941 107.282 169.754C107.697 169.562 108.162 169.467 108.677 169.467C109.196 169.467 109.663 169.562 110.078 169.754C110.497 169.941 110.853 170.205 111.145 170.547C111.441 170.884 111.666 171.283 111.821 171.743C111.976 172.199 112.054 172.693 112.054 173.227V173.384C112.054 173.917 111.976 174.411 111.821 174.867C111.666 175.323 111.441 175.722 111.145 176.063C110.853 176.401 110.5 176.665 110.085 176.856C109.675 177.043 109.21 177.137 108.69 177.137C108.171 177.137 107.704 177.043 107.289 176.856C106.874 176.665 106.519 176.401 106.223 176.063C105.931 175.722 105.708 175.323 105.553 174.867C105.398 174.411 105.32 173.917 105.32 173.384ZM106.585 173.227V173.384C106.585 173.753 106.628 174.102 106.715 174.43C106.801 174.753 106.931 175.04 107.104 175.291C107.282 175.542 107.503 175.74 107.768 175.886C108.032 176.027 108.34 176.098 108.69 176.098C109.037 176.098 109.34 176.027 109.6 175.886C109.864 175.74 110.083 175.542 110.256 175.291C110.429 175.04 110.559 174.753 110.646 174.43C110.737 174.102 110.782 173.753 110.782 173.384V173.227C110.782 172.862 110.737 172.518 110.646 172.194C110.559 171.866 110.427 171.577 110.249 171.326C110.076 171.071 109.857 170.87 109.593 170.725C109.333 170.579 109.028 170.506 108.677 170.506C108.33 170.506 108.025 170.579 107.761 170.725C107.501 170.87 107.282 171.071 107.104 171.326C106.931 171.577 106.801 171.866 106.715 172.194C106.628 172.518 106.585 172.862 106.585 173.227ZM116.736 169.604V170.574H112.737V169.604H116.736ZM114.091 167.806H115.355V175.168C115.355 175.419 115.394 175.608 115.472 175.735C115.549 175.863 115.649 175.947 115.772 175.988C115.896 176.029 116.028 176.05 116.169 176.05C116.274 176.05 116.383 176.041 116.497 176.022C116.616 176 116.704 175.981 116.764 175.968L116.771 177C116.67 177.032 116.538 177.062 116.374 177.089C116.215 177.121 116.021 177.137 115.793 177.137C115.483 177.137 115.198 177.075 114.938 176.952C114.679 176.829 114.471 176.624 114.316 176.337C114.166 176.045 114.091 175.653 114.091 175.161V167.806ZM119.484 166.5V177H118.22V166.5H119.484ZM119.184 173.021L118.657 173.001C118.662 172.495 118.737 172.028 118.883 171.6C119.029 171.167 119.234 170.791 119.498 170.472C119.762 170.153 120.077 169.907 120.441 169.733C120.811 169.556 121.218 169.467 121.665 169.467C122.03 169.467 122.358 169.517 122.649 169.617C122.941 169.713 123.189 169.868 123.395 170.082C123.604 170.296 123.764 170.574 123.873 170.916C123.982 171.253 124.037 171.666 124.037 172.153V177H122.766V172.14C122.766 171.752 122.709 171.442 122.595 171.21C122.481 170.973 122.314 170.802 122.096 170.697C121.877 170.588 121.608 170.533 121.289 170.533C120.975 170.533 120.688 170.599 120.428 170.731C120.173 170.864 119.951 171.046 119.765 171.278C119.582 171.511 119.439 171.777 119.334 172.078C119.234 172.374 119.184 172.689 119.184 173.021ZM127.305 169.604V177H126.033V169.604H127.305ZM125.938 167.642C125.938 167.437 125.999 167.263 126.122 167.122C126.25 166.981 126.437 166.91 126.683 166.91C126.924 166.91 127.109 166.981 127.236 167.122C127.368 167.263 127.435 167.437 127.435 167.642C127.435 167.838 127.368 168.006 127.236 168.147C127.109 168.284 126.924 168.353 126.683 168.353C126.437 168.353 126.25 168.284 126.122 168.147C125.999 168.006 125.938 167.838 125.938 167.642ZM130.6 171.183V177H129.335V169.604H130.531L130.6 171.183ZM130.299 173.021L129.772 173.001C129.777 172.495 129.852 172.028 129.998 171.6C130.144 171.167 130.349 170.791 130.613 170.472C130.878 170.153 131.192 169.907 131.557 169.733C131.926 169.556 132.334 169.467 132.78 169.467C133.145 169.467 133.473 169.517 133.765 169.617C134.056 169.713 134.305 169.868 134.51 170.082C134.719 170.296 134.879 170.574 134.988 170.916C135.098 171.253 135.152 171.666 135.152 172.153V177H133.881V172.14C133.881 171.752 133.824 171.442 133.71 171.21C133.596 170.973 133.43 170.802 133.211 170.697C132.992 170.588 132.723 170.533 132.404 170.533C132.09 170.533 131.803 170.599 131.543 170.731C131.288 170.864 131.067 171.046 130.88 171.278C130.698 171.511 130.554 171.777 130.449 172.078C130.349 172.374 130.299 172.689 130.299 173.021ZM141.865 169.604H143.014V176.843C143.014 177.494 142.882 178.05 142.617 178.511C142.353 178.971 141.984 179.32 141.51 179.557C141.04 179.798 140.498 179.919 139.883 179.919C139.628 179.919 139.327 179.878 138.98 179.796C138.639 179.718 138.301 179.584 137.969 179.393C137.641 179.206 137.365 178.953 137.142 178.634L137.805 177.882C138.115 178.256 138.438 178.515 138.775 178.661C139.117 178.807 139.454 178.88 139.787 178.88C140.188 178.88 140.535 178.805 140.826 178.654C141.118 178.504 141.343 178.281 141.503 177.984C141.667 177.693 141.749 177.333 141.749 176.904V171.23L141.865 169.604ZM136.772 173.384V173.24C136.772 172.675 136.839 172.162 136.971 171.702C137.107 171.237 137.301 170.839 137.552 170.506C137.807 170.173 138.115 169.918 138.475 169.74C138.835 169.558 139.24 169.467 139.691 169.467C140.156 169.467 140.562 169.549 140.908 169.713C141.259 169.872 141.555 170.107 141.797 170.417C142.043 170.722 142.237 171.091 142.378 171.524C142.519 171.957 142.617 172.447 142.672 172.994V173.623C142.622 174.165 142.524 174.653 142.378 175.086C142.237 175.519 142.043 175.888 141.797 176.193C141.555 176.499 141.259 176.733 140.908 176.897C140.557 177.057 140.147 177.137 139.678 177.137C139.236 177.137 138.835 177.043 138.475 176.856C138.119 176.67 137.814 176.408 137.559 176.07C137.303 175.733 137.107 175.337 136.971 174.881C136.839 174.421 136.772 173.922 136.772 173.384ZM138.037 173.24V173.384C138.037 173.753 138.074 174.099 138.146 174.423C138.224 174.746 138.34 175.031 138.495 175.277C138.655 175.523 138.857 175.717 139.104 175.858C139.35 175.995 139.644 176.063 139.985 176.063C140.405 176.063 140.751 175.975 141.024 175.797C141.298 175.619 141.514 175.384 141.674 175.093C141.838 174.801 141.965 174.484 142.057 174.143V172.495C142.007 172.244 141.929 172.003 141.824 171.771C141.724 171.534 141.592 171.324 141.428 171.142C141.268 170.955 141.07 170.807 140.833 170.697C140.596 170.588 140.318 170.533 139.999 170.533C139.653 170.533 139.354 170.606 139.104 170.752C138.857 170.893 138.655 171.089 138.495 171.34C138.34 171.586 138.224 171.873 138.146 172.201C138.074 172.525 138.037 172.871 138.037 173.24ZM151.292 177H149.214L149.228 175.927H151.292C152.003 175.927 152.595 175.779 153.069 175.482C153.543 175.182 153.899 174.762 154.136 174.225C154.377 173.682 154.498 173.049 154.498 172.324V171.716C154.498 171.146 154.43 170.64 154.293 170.198C154.156 169.752 153.956 169.376 153.691 169.07C153.427 168.76 153.104 168.526 152.721 168.366C152.342 168.207 151.907 168.127 151.415 168.127H149.173V167.047H151.415C152.067 167.047 152.661 167.156 153.199 167.375C153.737 167.589 154.2 167.901 154.587 168.312C154.979 168.717 155.28 169.209 155.489 169.788C155.699 170.362 155.804 171.009 155.804 171.729V172.324C155.804 173.044 155.699 173.694 155.489 174.272C155.28 174.847 154.977 175.337 154.58 175.742C154.188 176.148 153.714 176.46 153.158 176.679C152.607 176.893 151.985 177 151.292 177ZM149.918 167.047V177H148.599V167.047H149.918ZM161.956 175.735V171.928C161.956 171.636 161.897 171.383 161.778 171.169C161.664 170.95 161.491 170.782 161.259 170.663C161.026 170.545 160.739 170.485 160.397 170.485C160.078 170.485 159.798 170.54 159.557 170.649C159.32 170.759 159.133 170.902 158.996 171.08C158.864 171.258 158.798 171.449 158.798 171.654H157.533C157.533 171.39 157.602 171.128 157.738 170.868C157.875 170.608 158.071 170.374 158.326 170.164C158.586 169.95 158.896 169.781 159.256 169.658C159.62 169.531 160.026 169.467 160.473 169.467C161.01 169.467 161.484 169.558 161.895 169.74C162.309 169.923 162.633 170.198 162.865 170.567C163.102 170.932 163.221 171.39 163.221 171.941V175.387C163.221 175.633 163.241 175.895 163.282 176.173C163.328 176.451 163.394 176.69 163.48 176.891V177H162.161C162.097 176.854 162.047 176.66 162.011 176.419C161.974 176.173 161.956 175.945 161.956 175.735ZM162.175 172.516L162.188 173.404H160.91C160.55 173.404 160.229 173.434 159.946 173.493C159.664 173.548 159.427 173.632 159.235 173.746C159.044 173.86 158.898 174.004 158.798 174.177C158.698 174.345 158.647 174.544 158.647 174.771C158.647 175.004 158.7 175.216 158.805 175.407C158.91 175.599 159.067 175.751 159.276 175.865C159.491 175.975 159.753 176.029 160.062 176.029C160.45 176.029 160.792 175.947 161.088 175.783C161.384 175.619 161.619 175.419 161.792 175.182C161.97 174.945 162.065 174.715 162.079 174.491L162.619 175.1C162.587 175.291 162.501 175.503 162.359 175.735C162.218 175.968 162.029 176.191 161.792 176.405C161.56 176.615 161.282 176.79 160.958 176.932C160.639 177.068 160.279 177.137 159.878 177.137C159.377 177.137 158.937 177.039 158.559 176.843C158.185 176.647 157.893 176.385 157.684 176.057C157.479 175.724 157.376 175.353 157.376 174.942C157.376 174.546 157.453 174.197 157.608 173.896C157.763 173.591 157.987 173.338 158.278 173.138C158.57 172.933 158.921 172.778 159.331 172.673C159.741 172.568 160.199 172.516 160.705 172.516H162.175ZM168.307 169.604V170.574H164.308V169.604H168.307ZM165.661 167.806H166.926V175.168C166.926 175.419 166.965 175.608 167.042 175.735C167.119 175.863 167.22 175.947 167.343 175.988C167.466 176.029 167.598 176.05 167.739 176.05C167.844 176.05 167.953 176.041 168.067 176.022C168.186 176 168.275 175.981 168.334 175.968L168.341 177C168.241 177.032 168.108 177.062 167.944 177.089C167.785 177.121 167.591 177.137 167.363 177.137C167.053 177.137 166.769 177.075 166.509 176.952C166.249 176.829 166.042 176.624 165.887 176.337C165.736 176.045 165.661 175.653 165.661 175.161V167.806ZM174.151 175.735V171.928C174.151 171.636 174.092 171.383 173.974 171.169C173.86 170.95 173.687 170.782 173.454 170.663C173.222 170.545 172.935 170.485 172.593 170.485C172.274 170.485 171.993 170.54 171.752 170.649C171.515 170.759 171.328 170.902 171.191 171.08C171.059 171.258 170.993 171.449 170.993 171.654H169.729C169.729 171.39 169.797 171.128 169.934 170.868C170.07 170.608 170.266 170.374 170.521 170.164C170.781 169.95 171.091 169.781 171.451 169.658C171.816 169.531 172.221 169.467 172.668 169.467C173.206 169.467 173.68 169.558 174.09 169.74C174.505 169.923 174.828 170.198 175.061 170.567C175.298 170.932 175.416 171.39 175.416 171.941V175.387C175.416 175.633 175.437 175.895 175.478 176.173C175.523 176.451 175.589 176.69 175.676 176.891V177H174.356C174.293 176.854 174.243 176.66 174.206 176.419C174.17 176.173 174.151 175.945 174.151 175.735ZM174.37 172.516L174.384 173.404H173.105C172.745 173.404 172.424 173.434 172.142 173.493C171.859 173.548 171.622 173.632 171.431 173.746C171.239 173.86 171.093 174.004 170.993 174.177C170.893 174.345 170.843 174.544 170.843 174.771C170.843 175.004 170.895 175.216 171 175.407C171.105 175.599 171.262 175.751 171.472 175.865C171.686 175.975 171.948 176.029 172.258 176.029C172.645 176.029 172.987 175.947 173.283 175.783C173.579 175.619 173.814 175.419 173.987 175.182C174.165 174.945 174.261 174.715 174.274 174.491L174.814 175.1C174.783 175.291 174.696 175.503 174.555 175.735C174.413 175.968 174.224 176.191 173.987 176.405C173.755 176.615 173.477 176.79 173.153 176.932C172.834 177.068 172.474 177.137 172.073 177.137C171.572 177.137 171.132 177.039 170.754 176.843C170.38 176.647 170.089 176.385 169.879 176.057C169.674 175.724 169.571 175.353 169.571 174.942C169.571 174.546 169.649 174.197 169.804 173.896C169.959 173.591 170.182 173.338 170.474 173.138C170.765 172.933 171.116 172.778 171.526 172.673C171.937 172.568 172.395 172.516 172.9 172.516H174.37ZM184.474 167.047V177H183.175V167.047H184.474ZM187.673 167.047V168.127H179.982V167.047H187.673ZM187.939 173.384V173.227C187.939 172.693 188.017 172.199 188.172 171.743C188.327 171.283 188.55 170.884 188.842 170.547C189.133 170.205 189.487 169.941 189.901 169.754C190.316 169.562 190.781 169.467 191.296 169.467C191.815 169.467 192.283 169.562 192.697 169.754C193.117 169.941 193.472 170.205 193.764 170.547C194.06 170.884 194.285 171.283 194.44 171.743C194.595 172.199 194.673 172.693 194.673 173.227V173.384C194.673 173.917 194.595 174.411 194.44 174.867C194.285 175.323 194.06 175.722 193.764 176.063C193.472 176.401 193.119 176.665 192.704 176.856C192.294 177.043 191.829 177.137 191.31 177.137C190.79 177.137 190.323 177.043 189.908 176.856C189.493 176.665 189.138 176.401 188.842 176.063C188.55 175.722 188.327 175.323 188.172 174.867C188.017 174.411 187.939 173.917 187.939 173.384ZM189.204 173.227V173.384C189.204 173.753 189.247 174.102 189.334 174.43C189.421 174.753 189.55 175.04 189.724 175.291C189.901 175.542 190.122 175.74 190.387 175.886C190.651 176.027 190.959 176.098 191.31 176.098C191.656 176.098 191.959 176.027 192.219 175.886C192.483 175.74 192.702 175.542 192.875 175.291C193.048 175.04 193.178 174.753 193.265 174.43C193.356 174.102 193.401 173.753 193.401 173.384V173.227C193.401 172.862 193.356 172.518 193.265 172.194C193.178 171.866 193.046 171.577 192.868 171.326C192.695 171.071 192.476 170.87 192.212 170.725C191.952 170.579 191.647 170.506 191.296 170.506C190.95 170.506 190.644 170.579 190.38 170.725C190.12 170.87 189.901 171.071 189.724 171.326C189.55 171.577 189.421 171.866 189.334 172.194C189.247 172.518 189.204 172.862 189.204 173.227ZM205.228 174.484C205.228 174.252 205.191 174.047 205.118 173.869C205.05 173.687 204.927 173.523 204.749 173.377C204.576 173.231 204.334 173.092 204.024 172.96C203.719 172.828 203.332 172.693 202.862 172.557C202.37 172.411 201.926 172.249 201.529 172.071C201.133 171.889 200.793 171.682 200.511 171.449C200.228 171.217 200.012 170.95 199.861 170.649C199.711 170.349 199.636 170.005 199.636 169.617C199.636 169.23 199.715 168.872 199.875 168.544C200.035 168.216 200.262 167.931 200.559 167.689C200.859 167.443 201.217 167.252 201.632 167.115C202.047 166.979 202.509 166.91 203.02 166.91C203.767 166.91 204.4 167.054 204.92 167.341C205.444 167.623 205.843 167.995 206.116 168.455C206.39 168.911 206.526 169.398 206.526 169.918H205.214C205.214 169.544 205.134 169.214 204.975 168.927C204.815 168.635 204.574 168.407 204.25 168.243C203.926 168.075 203.516 167.99 203.02 167.99C202.55 167.99 202.163 168.061 201.857 168.202C201.552 168.343 201.324 168.535 201.174 168.776C201.028 169.018 200.955 169.294 200.955 169.604C200.955 169.813 200.998 170.005 201.085 170.178C201.176 170.346 201.315 170.504 201.502 170.649C201.693 170.795 201.935 170.93 202.227 171.053C202.523 171.176 202.876 171.294 203.286 171.408C203.851 171.568 204.339 171.745 204.749 171.941C205.159 172.137 205.496 172.358 205.761 172.604C206.03 172.846 206.228 173.122 206.355 173.432C206.488 173.737 206.554 174.083 206.554 174.471C206.554 174.876 206.472 175.243 206.308 175.571C206.144 175.899 205.909 176.18 205.604 176.412C205.298 176.645 204.931 176.825 204.503 176.952C204.079 177.075 203.605 177.137 203.081 177.137C202.621 177.137 202.167 177.073 201.721 176.945C201.279 176.818 200.875 176.626 200.511 176.371C200.151 176.116 199.861 175.801 199.643 175.428C199.428 175.049 199.321 174.612 199.321 174.115H200.634C200.634 174.457 200.7 174.751 200.832 174.997C200.964 175.239 201.144 175.439 201.372 175.599C201.604 175.758 201.867 175.877 202.158 175.954C202.454 176.027 202.762 176.063 203.081 176.063C203.541 176.063 203.931 176 204.25 175.872C204.569 175.744 204.811 175.562 204.975 175.325C205.143 175.088 205.228 174.808 205.228 174.484ZM209.309 166.5V177H208.044V166.5H209.309ZM209.008 173.021L208.481 173.001C208.486 172.495 208.561 172.028 208.707 171.6C208.853 171.167 209.058 170.791 209.322 170.472C209.587 170.153 209.901 169.907 210.266 169.733C210.635 169.556 211.043 169.467 211.489 169.467C211.854 169.467 212.182 169.517 212.474 169.617C212.765 169.713 213.014 169.868 213.219 170.082C213.428 170.296 213.588 170.574 213.697 170.916C213.807 171.253 213.861 171.666 213.861 172.153V177H212.59V172.14C212.59 171.752 212.533 171.442 212.419 171.21C212.305 170.973 212.139 170.802 211.92 170.697C211.701 170.588 211.432 170.533 211.113 170.533C210.799 170.533 210.512 170.599 210.252 170.731C209.997 170.864 209.776 171.046 209.589 171.278C209.407 171.511 209.263 171.777 209.158 172.078C209.058 172.374 209.008 172.689 209.008 173.021ZM215.42 173.384V173.227C215.42 172.693 215.497 172.199 215.652 171.743C215.807 171.283 216.031 170.884 216.322 170.547C216.614 170.205 216.967 169.941 217.382 169.754C217.797 169.562 218.261 169.467 218.776 169.467C219.296 169.467 219.763 169.562 220.178 169.754C220.597 169.941 220.952 170.205 221.244 170.547C221.54 170.884 221.766 171.283 221.921 171.743C222.076 172.199 222.153 172.693 222.153 173.227V173.384C222.153 173.917 222.076 174.411 221.921 174.867C221.766 175.323 221.54 175.722 221.244 176.063C220.952 176.401 220.599 176.665 220.185 176.856C219.774 177.043 219.31 177.137 218.79 177.137C218.271 177.137 217.803 177.043 217.389 176.856C216.974 176.665 216.618 176.401 216.322 176.063C216.031 175.722 215.807 175.323 215.652 174.867C215.497 174.411 215.42 173.917 215.42 173.384ZM216.685 173.227V173.384C216.685 173.753 216.728 174.102 216.814 174.43C216.901 174.753 217.031 175.04 217.204 175.291C217.382 175.542 217.603 175.74 217.867 175.886C218.132 176.027 218.439 176.098 218.79 176.098C219.136 176.098 219.439 176.027 219.699 175.886C219.964 175.74 220.182 175.542 220.355 175.291C220.529 175.04 220.659 174.753 220.745 174.43C220.836 174.102 220.882 173.753 220.882 173.384V173.227C220.882 172.862 220.836 172.518 220.745 172.194C220.659 171.866 220.526 171.577 220.349 171.326C220.175 171.071 219.957 170.87 219.692 170.725C219.433 170.579 219.127 170.506 218.776 170.506C218.43 170.506 218.125 170.579 217.86 170.725C217.601 170.87 217.382 171.071 217.204 171.326C217.031 171.577 216.901 171.866 216.814 172.194C216.728 172.518 216.685 172.862 216.685 173.227ZM225.612 175.688L227.513 169.604H228.347L228.183 170.813L226.248 177H225.435L225.612 175.688ZM224.334 169.604L225.954 175.756L226.07 177H225.216L223.069 169.604H224.334ZM230.165 175.708L231.71 169.604H232.968L230.821 177H229.974L230.165 175.708ZM228.531 169.604L230.391 175.585L230.603 177H229.796L227.807 170.8L227.643 169.604H228.531Z" fill="#9E9E9E"/>
<defs>
<filter id="filter0_d_204_55935" x="128.964" y="18.1425" width="97.4505" height="82.811" filterUnits="userSpaceOnUse" color-interpolation-filters="sRGB">
<feFlood flood-opacity="0" result="BackgroundImageFix"/>
<feColorMatrix in="SourceAlpha" type="matrix" values="0 0 0 0 0 0 0 0 0 0 0 0 0 0 0 0 0 0 127 0" result="hardAlpha"/>
<feOffset dy="3.37051"/>
<feGaussianBlur stdDeviation="3.37051"/>
<feColorMatrix type="matrix" values="0 0 0 0 0 0 0 0 0 0 0 0 0 0 0 0 0 0 0.161 0"/>
<feBlend mode="normal" in2="BackgroundImageFix" result="effect1_dropShadow_204_55935"/>
<feBlend mode="normal" in="SourceGraphic" in2="effect1_dropShadow_204_55935" result="shape"/>
</filter>
<filter id="filter1_d_204_55935" x="101.586" y="64.274" width="97.4505" height="82.8126" filterUnits="userSpaceOnUse" color-interpolation-filters="sRGB">
<feFlood flood-opacity="0" result="BackgroundImageFix"/>
<feColorMatrix in="SourceAlpha" type="matrix" values="0 0 0 0 0 0 0 0 0 0 0 0 0 0 0 0 0 0 127 0" result="hardAlpha"/>
<feOffset dy="3.37051"/>
<feGaussianBlur stdDeviation="3.37051"/>
<feColorMatrix type="matrix" values="0 0 0 0 0 0 0 0 0 0 0 0 0 0 0 0 0 0 0.161 0"/>
<feBlend mode="normal" in2="BackgroundImageFix" result="effect1_dropShadow_204_55935"/>
<feBlend mode="normal" in="SourceGraphic" in2="effect1_dropShadow_204_55935" result="shape"/>
</filter>
</defs>
</svg>
