<svg width="14" height="14" viewBox="0 0 14 14" fill="none" xmlns="http://www.w3.org/2000/svg">
<g id="buildings">
<g id="Vector">
<path fill-rule="evenodd" clip-rule="evenodd" d="M13.0126 1.07235C13.1222 1.14824 13.1875 1.27301 13.1875 1.40625V13.5938C13.1875 13.8181 13.0056 14 12.7812 14H10.3437C10.1194 14 9.9375 13.8181 9.9375 13.5938V12.375H9.125V13.5938C9.125 13.8181 8.94311 14 8.71875 14H1.40625C1.18188 14 1 13.8181 1 13.5938V8.71875C1 8.52016 1.14357 8.35068 1.33946 8.31803L5.875 7.56211V3.84375C5.875 3.67441 5.98004 3.52283 6.1386 3.46337L12.6386 1.02587C12.7634 0.979084 12.9031 0.996451 13.0126 1.07235ZM6.6875 4.12528V7.90625C6.6875 8.10484 6.54392 8.27432 6.34804 8.30697L1.8125 9.0629V13.1875H8.3125V11.9688C8.3125 11.7444 8.49438 11.5625 8.71875 11.5625H10.3437C10.5681 11.5625 10.75 11.7444 10.75 11.9688V13.1875H12.375V1.99247L6.6875 4.12528Z" fill="#437FDA"/>
<path fill-rule="evenodd" clip-rule="evenodd" d="M5.875 13.5938V7.90625H6.6875V13.5938H5.875Z" fill="#437FDA"/>
<path d="M2.625 9.9375H3.4375V10.75H2.625V9.9375Z" fill="#437FDA"/>
<path d="M4.25 9.9375H5.0625V10.75H4.25V9.9375Z" fill="#437FDA"/>
<path d="M2.625 11.5625H3.4375V12.375H2.625V11.5625Z" fill="#437FDA"/>
<path d="M4.25 11.5625H5.0625V12.375H4.25V11.5625Z" fill="#437FDA"/>
<path d="M9.125 3.4375H9.9375V4.25H9.125V3.4375Z" fill="#437FDA"/>
<path d="M10.75 3.4375H11.5625V4.25H10.75V3.4375Z" fill="#437FDA"/>
<path d="M7.5 5.0625H8.3125V5.875H7.5V5.0625Z" fill="#437FDA"/>
<path d="M9.125 5.0625H9.9375V5.875H9.125V5.0625Z" fill="#437FDA"/>
<path d="M10.75 5.0625H11.5625V5.875H10.75V5.0625Z" fill="#437FDA"/>
<path d="M9.125 6.6875H9.9375V7.5H9.125V6.6875Z" fill="#437FDA"/>
<path d="M10.75 6.6875H11.5625V7.5H10.75V6.6875Z" fill="#437FDA"/>
<path d="M7.5 6.6875H8.3125V7.5H7.5V6.6875Z" fill="#437FDA"/>
<path d="M7.5 8.3125H8.3125V9.125H7.5V8.3125Z" fill="#437FDA"/>
<path d="M9.125 8.3125H9.9375V9.125H9.125V8.3125Z" fill="#437FDA"/>
<path d="M10.75 8.3125H11.5625V9.125H10.75V8.3125Z" fill="#437FDA"/>
<path d="M7.5 9.9375H8.3125V10.75H7.5V9.9375Z" fill="#437FDA"/>
<path d="M9.125 9.9375H9.9375V10.75H9.125V9.9375Z" fill="#437FDA"/>
<path d="M10.75 9.9375H11.5625V10.75H10.75V9.9375Z" fill="#437FDA"/>
</g>
</g>
</svg>
