<svg width="16" height="17" viewBox="0 0 16 17" fill="none" xmlns="http://www.w3.org/2000/svg">
<g id="file-earmark-text">
<g id="Union">
<path d="M5.5 7.5C5.22386 7.5 5 7.72386 5 8C5 8.27614 5.22386 8.5 5.5 8.5H10.5C10.7761 8.5 11 8.27614 11 8C11 7.72386 10.7761 7.5 10.5 7.5H5.5Z" fill="#437FDA"/>
<path d="M5 10C5 9.72386 5.22386 9.5 5.5 9.5H10.5C10.7761 9.5 11 9.72386 11 10C11 10.2761 10.7761 10.5 10.5 10.5H5.5C5.22386 10.5 5 10.2761 5 10Z" fill="#437FDA"/>
<path d="M5 12C5 11.7239 5.22386 11.5 5.5 11.5H7.5C7.77614 11.5 8 11.7239 8 12C8 12.2761 7.77614 12.5 7.5 12.5H5.5C5.22386 12.5 5 12.2761 5 12Z" fill="#437FDA"/>
<path d="M9.5 0.5H4C2.89543 0.5 2 1.39543 2 2.5V14.5C2 15.6046 2.89543 16.5 4 16.5H12C13.1046 16.5 14 15.6046 14 14.5V5L9.5 0.5ZM9.5 1.5V3.5C9.5 4.32843 10.1716 5 11 5H13V14.5C13 15.0523 12.5523 15.5 12 15.5H4C3.44772 15.5 3 15.0523 3 14.5V2.5C3 1.94772 3.44772 1.5 4 1.5H9.5Z" fill="#437FDA"/>
</g>
</g>
</svg>
