<svg width="65" height="53" viewBox="0 0 65 53" fill="none" xmlns="http://www.w3.org/2000/svg">
<g id="Group 21900">
<path id="Vector" d="M29.7526 -3.38062C33.0863 -5.46518 38.2865 -4.73977 40.2907 -1.09744C41.8169 1.8042 41.8849 5.20972 42.3689 8.39386C42.7168 8.44733 43.4277 8.55428 43.7832 8.6076C43.7378 4.57598 43.7378 0.544207 43.7756 -3.48741C45.9825 -3.47978 48.1908 -3.49505 50.4052 -3.54089C50.4052 0.36866 50.4733 4.27821 50.4355 8.18776C50.7682 13.9603 42.7546 16.3657 38.6722 13.3342C34.5142 10.7 35.7394 5.04182 34.0241 1.01004C32.6628 4.385 32.5342 8.12665 31.1427 11.4787C27.756 16.4573 18.5793 15.3806 17.2936 9.18038C17.0213 4.95778 17.2709 0.719907 17.1877 -3.51033C19.4717 -3.49505 21.7617 -3.48741 24.0518 -3.51033C24.0911 0.498373 24.0744 4.51487 24.0442 8.52372C24.3467 8.53136 24.9517 8.56192 25.2542 8.5772C26.3584 4.53778 25.7382 -0.891336 29.7526 -3.38062Z" fill="white" fill-opacity="0.2"/>
<path id="Vector_2" d="M0.981875 11.3722C5.35925 11.4792 9.76685 11.1355 14.1291 11.563C19.3369 13.2812 20.3957 21.1384 16.2679 24.5517C13.1989 27.2089 8.76099 26.2239 5.27604 27.9877C8.98032 29.4462 13.6527 28.7743 16.6687 31.7522C20.5091 35.425 19.0344 43.6794 13.4182 44.504C9.26775 44.7483 5.10213 44.504 0.951641 44.6415C0.975842 42.3125 0.981893 39.9836 0.990969 37.6624C5.13238 37.502 9.3736 38.1968 13.4409 37.166C10.5156 35.8832 7.32557 35.6846 4.27169 34.9439C-1.6485 32.8365 -1.33839 22.5281 4.72549 20.7718C7.70374 20.1075 10.803 19.9244 13.6678 18.7178C9.4946 17.8931 5.23066 18.3819 1.01211 18.3437C0.981859 16.0148 0.981875 13.6934 0.981875 11.3722Z" fill="white" fill-opacity="0.2"/>
<path id="Vector_3" d="M50.004 22.6061C47.4553 18.7271 49.5805 12.2137 54.336 11.473C58.5455 11.2211 62.7716 11.4501 66.9901 11.3813C66.9599 13.6951 66.9523 16.0087 66.9372 18.3147C62.6052 18.4674 58.2052 17.8184 53.9261 18.7347C57.0269 20.0863 60.474 19.9564 63.664 20.9261C68.055 22.7969 69.1516 28.9133 66.5666 32.6547C63.6111 36.5719 58.069 35.1288 54.1167 37.2362C58.3337 38.1754 62.696 37.4958 66.9826 37.6944C66.9599 40.0004 66.9599 42.2988 66.975 44.6048C63.0212 44.5513 59.0749 44.6964 55.1286 44.5589C49.8528 44.643 47.2965 37.3355 50.0191 33.2961C52.3621 28.8292 58.0993 29.4019 62.2573 28.2872C62.0229 27.9969 61.5464 27.4242 61.3044 27.1418C57.3369 26.6301 52.1201 26.7676 50.004 22.6061Z" fill="white" fill-opacity="0.2"/>
<path id="Vector_4" d="M36.0718 45.1042C37.9172 43.0808 40.2677 41.0953 43.193 41.3704C46.0653 41.1488 48.3644 43.1266 50.2612 45.0507C50.5183 49.7774 50.4276 54.5115 50.3898 59.2381C48.3871 59.3603 46.3678 59.5206 44.3728 59.3069C43.4425 58.9632 43.8585 57.8178 43.7299 57.0771C43.677 53.6487 43.8887 50.2126 43.5333 46.7917C40.555 50.0599 42.7165 55.9166 38.8686 58.7646C35.4607 61.7121 29.7447 60.8797 27.4018 57.0084C26.1841 53.9312 25.8665 50.5868 25.2161 47.3645L24.0227 47.456C24.0378 51.4572 24.0681 55.4508 24 59.4518C21.7009 59.4138 19.4185 59.3221 17.1436 59.1235C17.3024 55.0537 17.0074 50.9762 17.2797 46.9139C18.2689 41.8131 25.0891 39.6904 29.0792 42.6608C33.1919 45.3027 32.1179 50.9608 33.9028 54.9697C35.0674 51.7932 35.4759 48.4182 36.0718 45.1042Z" fill="white" fill-opacity="0.2"/>
</g>
</svg>
