<svg width="20" height="20" viewBox="0 0 20 20" fill="none" xmlns="http://www.w3.org/2000/svg">
<g id="house2" clip-path="url(#clip0_745_27617)">
<g id="Group">
<path id="Vector" d="M11.0233 2.24001C10.7307 2.01242 10.3706 1.88885 9.99992 1.88885C9.62925 1.88885 9.26916 2.01242 8.97659 2.24001L1.98992 7.67334C1.36326 8.16251 1.70826 9.16668 2.50242 9.16668H3.33326V15.8333C3.33326 16.2754 3.50885 16.6993 3.82141 17.0119C4.13397 17.3244 4.5579 17.5 4.99992 17.5H8.33326V12.5C8.33326 12.058 8.50885 11.6341 8.82141 11.3215C9.13397 11.0089 9.5579 10.8333 9.99992 10.8333C10.442 10.8333 10.8659 11.0089 11.1784 11.3215C11.491 11.6341 11.6666 12.058 11.6666 12.5V17.5H14.9999C15.4419 17.5 15.8659 17.3244 16.1784 17.0119C16.491 16.6993 16.6666 16.2754 16.6666 15.8333V9.16668H17.4974C18.2908 9.16668 18.6374 8.16251 18.0099 7.67418L11.0233 2.24001Z" fill="#437FDA"/>
</g>
</g>
<defs>
<clipPath id="clip0_745_27617">
<rect width="20" height="20" fill="white"/>
</clipPath>
</defs>
</svg>
