<svg width="51" height="54" viewBox="0 0 51 54" fill="none" xmlns="http://www.w3.org/2000/svg">
<g style="mix-blend-mode:multiply">
<path d="M45.6232 5.97829H44.9434V2.94766C44.9434 2.75406 44.8917 2.57296 44.8016 2.41594C44.6169 2.09298 44.2698 1.8744 43.8711 1.8744H43.6034H43.3349C42.7425 1.8744 42.2625 2.35438 42.2625 2.94677V5.9774H36.3199V2.94766C36.3199 2.7496 36.2655 2.56493 36.1718 2.40613C35.9854 2.08852 35.6419 1.8753 35.2475 1.8753H34.9799H34.7114C34.119 1.8753 33.639 2.35527 33.639 2.94766V5.97829H27.6964V2.94766C27.6964 2.7496 27.642 2.56493 27.5483 2.40613C27.3618 2.08852 27.0184 1.8753 26.624 1.8753H26.3564H26.0879C25.4955 1.8753 25.0155 2.35527 25.0155 2.94766V5.97829H19.0729V2.94766C19.0729 2.75496 19.0211 2.57474 18.9328 2.41862C18.7481 2.09387 18.4002 1.8744 18.0005 1.8744H17.7329H17.4643C16.872 1.8744 16.392 2.35438 16.392 2.94677V5.9774H10.4494V2.94766C10.4494 2.75406 10.3976 2.57296 10.3075 2.41594C10.1228 2.09298 9.7758 1.8744 9.37701 1.8744H9.10936H8.84082C8.24844 1.8744 7.76846 2.35438 7.76846 2.94677V5.9774H7.08864C4.21057 5.9774 1.87671 8.31126 1.87671 11.1893V48.7881C1.87671 51.6661 4.21057 54 7.08864 54H45.625C48.5031 54 50.837 51.6661 50.837 48.7881V11.1902C50.837 8.31215 48.5031 5.97829 45.625 5.97829H45.6232Z" fill="#D1D3D4"/>
</g>
<path d="M43.7481 5.04063H5.21169C2.33322 5.04063 -0.000244141 7.3741 -0.000244141 10.2526V46.9136C-0.000244141 49.7921 2.33322 52.1256 5.21169 52.1256H43.7481C46.6265 52.1256 48.96 49.7921 48.96 46.9136V10.2526C48.96 7.3741 46.6265 5.04063 43.7481 5.04063Z" fill="#D1D3D4"/>
<path d="M43.7481 4.10388H5.21169C2.33322 4.10388 -0.000244141 6.43734 -0.000244141 9.31582V45.9769C-0.000244141 48.8554 2.33322 51.1888 5.21169 51.1888H43.7481C46.6265 51.1888 48.96 48.8554 48.96 45.9769V9.31582C48.96 6.43734 46.6265 4.10388 43.7481 4.10388Z" fill="white"/>
<path d="M48.96 9.31492V17.7654H-0.000244141V9.31492C-0.000244141 6.43684 2.33362 4.10298 5.21169 4.10298H43.7481C46.6261 4.10298 48.96 6.43684 48.96 9.31492Z" fill="#F5425C"/>
<path d="M7.46668 8.5537C8.27074 8.4239 8.81734 7.66686 8.68754 6.86281C8.55774 6.05875 7.8007 5.51215 6.99665 5.64195C6.19259 5.77175 5.64599 6.52879 5.77579 7.33284C5.90559 8.1369 6.66263 8.6835 7.46668 8.5537Z" fill="#414042"/>
<path d="M7.49966 -1.52588e-05H6.96348C6.37123 -1.52588e-05 5.89111 0.480098 5.89111 1.07235V6.9873C5.89111 7.57955 6.37123 8.05966 6.96348 8.05966H7.49966C8.09191 8.05966 8.57202 7.57955 8.57202 6.9873V1.07235C8.57202 0.480098 8.09191 -1.52588e-05 7.49966 -1.52588e-05Z" fill="#546885"/>
<g style="mix-blend-mode:multiply">
<path d="M8.57219 1.07324V6.9873C8.57219 7.57968 8.09221 8.06055 7.49982 8.06055H7.23218V-1.52588e-05H7.49982C8.09132 -1.52588e-05 8.57219 0.479961 8.57219 1.07324Z" fill="#F1F2F2"/>
</g>
<path d="M16.0009 8.56413C16.8114 8.48409 17.4036 7.76214 17.3235 6.95161C17.2435 6.14109 16.5215 5.54892 15.711 5.62896C14.9005 5.70901 14.3083 6.43095 14.3883 7.24148C14.4684 8.052 15.1903 8.64417 16.0009 8.56413Z" fill="#414042"/>
<path d="M16.1244 -1.52588e-05H15.5882C14.996 -1.52588e-05 14.5159 0.480098 14.5159 1.07235V6.9873C14.5159 7.57955 14.996 8.05966 15.5882 8.05966H16.1244C16.7167 8.05966 17.1968 7.57955 17.1968 6.9873V1.07235C17.1968 0.480098 16.7167 -1.52588e-05 16.1244 -1.52588e-05Z" fill="#546885"/>
<g style="mix-blend-mode:multiply">
<path d="M17.1965 1.07324V6.9873C17.1965 7.57968 16.7165 8.06055 16.1241 8.06055H15.8564V-1.52588e-05H16.1241C16.7156 -1.52588e-05 17.1965 0.479961 17.1965 1.07324Z" fill="#F1F2F2"/>
</g>
<path d="M24.6594 8.56133C25.4678 8.46222 26.0428 7.72652 25.9437 6.9181C25.8445 6.10969 25.1088 5.53469 24.3004 5.63381C23.492 5.73293 22.917 6.46863 23.0161 7.27704C23.1153 8.08545 23.851 8.66045 24.6594 8.56133Z" fill="#414042"/>
<path d="M24.7479 -1.52588e-05H24.2118C23.6195 -1.52588e-05 23.1394 0.480098 23.1394 1.07235V6.9873C23.1394 7.57955 23.6195 8.05966 24.2118 8.05966H24.7479C25.3402 8.05966 25.8203 7.57955 25.8203 6.9873V1.07235C25.8203 0.480098 25.3402 -1.52588e-05 24.7479 -1.52588e-05Z" fill="#546885"/>
<g style="mix-blend-mode:multiply">
<path d="M25.8202 1.07324V6.9873C25.8202 7.57968 25.3403 8.06055 24.7479 8.06055H24.4802V-1.52588e-05H24.7479C25.3394 -1.52588e-05 25.8202 0.479961 25.8202 1.07324Z" fill="#F1F2F2"/>
</g>
<path d="M33.8323 8.38022C34.5403 7.97767 34.788 7.07737 34.3854 6.36933C33.9829 5.6613 33.0826 5.41365 32.3745 5.8162C31.6665 6.21875 31.4189 7.11905 31.8214 7.82708C32.224 8.53512 33.1243 8.78276 33.8323 8.38022Z" fill="#414042"/>
<path d="M33.372 -1.52588e-05H32.8358C32.2435 -1.52588e-05 31.7634 0.480098 31.7634 1.07235V6.9873C31.7634 7.57955 32.2435 8.05966 32.8358 8.05966H33.372C33.9642 8.05966 34.4443 7.57955 34.4443 6.9873V1.07235C34.4443 0.480098 33.9642 -1.52588e-05 33.372 -1.52588e-05Z" fill="#546885"/>
<g style="mix-blend-mode:multiply">
<path d="M34.4447 1.07324V6.9873C34.4447 7.57968 33.9648 8.06055 33.3724 8.06055H33.1047V-1.52588e-05H33.3724C33.9639 -1.52588e-05 34.4447 0.479961 34.4447 1.07324Z" fill="#F1F2F2"/>
</g>
<path d="M41.8538 8.56743C42.6653 8.49772 43.2666 7.78338 43.1969 6.9719C43.1272 6.16042 42.4129 5.5591 41.6014 5.62881C40.7899 5.69852 40.1886 6.41287 40.2583 7.22435C40.328 8.03582 41.0424 8.63715 41.8538 8.56743Z" fill="#414042"/>
<path d="M41.9953 -1.52588e-05H41.4591C40.8668 -1.52588e-05 40.3867 0.480098 40.3867 1.07235V6.9873C40.3867 7.57955 40.8668 8.05966 41.4591 8.05966H41.9953C42.5875 8.05966 43.0676 7.57955 43.0676 6.9873V1.07235C43.0676 0.480098 42.5875 -1.52588e-05 41.9953 -1.52588e-05Z" fill="#546885"/>
<g style="mix-blend-mode:multiply">
<path d="M43.068 1.07324V6.9873C43.068 7.57968 42.5881 8.06055 41.9957 8.06055H41.728V-1.52588e-05H41.9957C42.5872 -1.52588e-05 43.068 0.479961 43.068 1.07324Z" fill="#F1F2F2"/>
</g>
<g style="mix-blend-mode:multiply">
<path d="M48.96 16.9455H-0.000244141V17.7654H48.96V16.9455Z" fill="#E6E7E8"/>
</g>
<g style="mix-blend-mode:multiply">
<path d="M48.96 17.7654H-0.000244141V18.5852H48.96V17.7654Z" fill="#E6E7E8"/>
</g>
<path d="M8.29761 22.517H6.16805C5.40187 22.517 4.78076 23.1381 4.78076 23.9042V26.0338C4.78076 26.8 5.40187 27.4211 6.16805 27.4211H8.29761C9.06379 27.4211 9.68491 26.8 9.68491 26.0338V23.9042C9.68491 23.1381 9.06379 22.517 8.29761 22.517Z" fill="#B2BDCF"/>
<path d="M16.9214 22.517H14.7918C14.0257 22.517 13.4045 23.1381 13.4045 23.9042V26.0338C13.4045 26.8 14.0257 27.4211 14.7918 27.4211H16.9214C17.6876 27.4211 18.3087 26.8 18.3087 26.0338V23.9042C18.3087 23.1381 17.6876 22.517 16.9214 22.517Z" fill="#B2BDCF"/>
<path d="M25.5444 22.517H23.4149C22.6487 22.517 22.0276 23.1381 22.0276 23.9042V26.0338C22.0276 26.8 22.6487 27.4211 23.4149 27.4211H25.5444C26.3106 27.4211 26.9317 26.8 26.9317 26.0338V23.9042C26.9317 23.1381 26.3106 22.517 25.5444 22.517Z" fill="#B2BDCF"/>
<path d="M34.169 22.517H32.0394C31.2732 22.517 30.6521 23.1381 30.6521 23.9042V26.0338C30.6521 26.8 31.2732 27.4211 32.0394 27.4211H34.169C34.9351 27.4211 35.5562 26.8 35.5562 26.0338V23.9042C35.5562 23.1381 34.9351 22.517 34.169 22.517Z" fill="#B2BDCF"/>
<path d="M42.7925 22.517H40.6629C39.8967 22.517 39.2756 23.1381 39.2756 23.9042V26.0338C39.2756 26.8 39.8967 27.4211 40.6629 27.4211H42.7925C43.5587 27.4211 44.1798 26.8 44.1798 26.0338V23.9042C44.1798 23.1381 43.5587 22.517 42.7925 22.517Z" fill="#B2BDCF"/>
<path d="M8.29761 31.2368H6.16805C5.40187 31.2368 4.78076 31.8579 4.78076 32.6241V34.7537C4.78076 35.5198 5.40187 36.141 6.16805 36.141H8.29761C9.06379 36.141 9.68491 35.5198 9.68491 34.7537V32.6241C9.68491 31.8579 9.06379 31.2368 8.29761 31.2368Z" fill="#B2BDCF"/>
<path d="M16.9214 31.2368H14.7918C14.0257 31.2368 13.4045 31.8579 13.4045 32.6241V34.7537C13.4045 35.5198 14.0257 36.141 14.7918 36.141H16.9214C17.6876 36.141 18.3087 35.5198 18.3087 34.7537V32.6241C18.3087 31.8579 17.6876 31.2368 16.9214 31.2368Z" fill="#B2BDCF"/>
<path d="M25.5444 31.2368H23.4149C22.6487 31.2368 22.0276 31.8579 22.0276 32.6241V34.7537C22.0276 35.5198 22.6487 36.141 23.4149 36.141H25.5444C26.3106 36.141 26.9317 35.5198 26.9317 34.7537V32.6241C26.9317 31.8579 26.3106 31.2368 25.5444 31.2368Z" fill="#B2BDCF"/>
<path d="M34.169 31.2368H32.0394C31.2732 31.2368 30.6521 31.8579 30.6521 32.6241V34.7537C30.6521 35.5198 31.2732 36.141 32.0394 36.141H34.169C34.9351 36.141 35.5562 35.5198 35.5562 34.7537V32.6241C35.5562 31.8579 34.9351 31.2368 34.169 31.2368Z" fill="#B2BDCF"/>
<path d="M42.7925 31.2368H40.6629C39.8967 31.2368 39.2756 31.8579 39.2756 32.6241V34.7537C39.2756 35.5198 39.8967 36.141 40.6629 36.141H42.7925C43.5587 36.141 44.1798 35.5198 44.1798 34.7537V32.6241C44.1798 31.8579 43.5587 31.2368 42.7925 31.2368Z" fill="#B2BDCF"/>
<path d="M8.29761 39.9558H6.16805C5.40187 39.9558 4.78076 40.5769 4.78076 41.3431V43.4726C4.78076 44.2388 5.40187 44.8599 6.16805 44.8599H8.29761C9.06379 44.8599 9.68491 44.2388 9.68491 43.4726V41.3431C9.68491 40.5769 9.06379 39.9558 8.29761 39.9558Z" fill="#B2BDCF"/>
<path d="M16.9214 39.9558H14.7918C14.0257 39.9558 13.4045 40.5769 13.4045 41.3431V43.4726C13.4045 44.2388 14.0257 44.8599 14.7918 44.8599H16.9214C17.6876 44.8599 18.3087 44.2388 18.3087 43.4726V41.3431C18.3087 40.5769 17.6876 39.9558 16.9214 39.9558Z" fill="#F56E82"/>
<path d="M25.5444 39.9558H23.4149C22.6487 39.9558 22.0276 40.5769 22.0276 41.3431V43.4726C22.0276 44.2388 22.6487 44.8599 23.4149 44.8599H25.5444C26.3106 44.8599 26.9317 44.2388 26.9317 43.4726V41.3431C26.9317 40.5769 26.3106 39.9558 25.5444 39.9558Z" fill="#B2BDCF"/>
<path d="M34.169 39.9558H32.0394C31.2732 39.9558 30.6521 40.5769 30.6521 41.3431V43.4726C30.6521 44.2388 31.2732 44.8599 32.0394 44.8599H34.169C34.9351 44.8599 35.5562 44.2388 35.5562 43.4726V41.3431C35.5562 40.5769 34.9351 39.9558 34.169 39.9558Z" fill="#B2BDCF"/>
<path d="M42.7925 39.9558H40.6629C39.8967 39.9558 39.2756 40.5769 39.2756 41.3431V43.4726C39.2756 44.2388 39.8967 44.8599 40.6629 44.8599H42.7925C43.5587 44.8599 44.1798 44.2388 44.1798 43.4726V41.3431C44.1798 40.5769 43.5587 39.9558 42.7925 39.9558Z" fill="#B2BDCF"/>
</svg>
