<svg width="41" height="60" viewBox="0 0 41 60" fill="none" xmlns="http://www.w3.org/2000/svg">
<path d="M3.11165 2.16808H36.9614C38.6797 2.16808 40.0731 3.56312 40.0731 5.27973V56.8883C40.0731 58.6066 38.678 60 36.9614 60H3.11165C1.39342 60 0 58.6049 0 56.8883V5.27973C0 3.5615 1.39505 2.16808 3.11165 2.16808Z" fill="#1F273D"/>
<path d="M5.30843 5.33656H34.7668C36.485 5.33656 37.8785 6.73161 37.8785 8.44822V53.7198C37.8785 55.4381 36.4834 56.8315 34.7668 56.8315H5.30843C3.5902 56.8315 2.19678 55.4364 2.19678 53.7198V8.44984C2.19678 6.73161 3.59182 5.33819 5.30843 5.33819V5.33656Z" fill="#DCDDE0"/>
<path d="M28.8019 55.0109H5.82828C4.17664 55.0109 2.82544 53.6598 2.82544 52.0081V8.33941C2.82544 6.68776 4.17664 5.33656 5.82828 5.33656H34.244C35.8957 5.33656 37.2469 6.68776 37.2469 8.33941V46.0641" fill="white"/>
<path d="M9.15608 6.51076C9.15608 7.21234 8.79717 7.78725 8.35868 7.78725C7.92019 7.78725 7.56128 7.21234 7.56128 6.51076V1.27649C7.56128 0.574909 7.92019 0 8.35868 0C8.79717 0 9.15608 0.574909 9.15608 1.27649V6.51076Z" fill="#5D5D5D"/>
<path d="M13.827 6.51076C13.827 7.21234 13.4681 7.78725 13.0296 7.78725C12.5911 7.78725 12.2322 7.21234 12.2322 6.51076V1.27649C12.2322 0.574909 12.5911 0 13.0296 0C13.4681 0 13.827 0.574909 13.827 1.27649V6.51076Z" fill="#5D5D5D"/>
<path d="M18.4991 6.51076C18.4991 7.21234 18.1402 7.78725 17.7017 7.78725C17.2632 7.78725 16.9043 7.21234 16.9043 6.51076V1.27649C16.9043 0.574909 17.2632 0 17.7017 0C18.1402 0 18.4991 0.574909 18.4991 1.27649V6.51076Z" fill="#5D5D5D"/>
<path d="M23.1702 6.51076C23.1702 7.21234 22.8113 7.78725 22.3728 7.78725C21.9344 7.78725 21.5754 7.21234 21.5754 6.51076V1.27649C21.5754 0.574909 21.9344 0 22.3728 0C22.8113 0 23.1702 0.574909 23.1702 1.27649V6.51076Z" fill="#5D5D5D"/>
<path d="M27.8411 6.51076C27.8411 7.21234 27.4822 7.78725 27.0437 7.78725C26.6053 7.78725 26.2463 7.21234 26.2463 6.51076V1.27649C26.2463 0.574909 26.6053 0 27.0437 0C27.4822 0 27.8411 0.574909 27.8411 1.27649V6.51076Z" fill="#5D5D5D"/>
<path d="M32.5147 6.51076C32.5147 7.21234 32.1558 7.78725 31.7173 7.78725C31.2788 7.78725 30.9199 7.21234 30.9199 6.51076V1.27649C30.9199 0.574909 31.2788 0 31.7173 0C32.1558 0 32.5147 0.574909 32.5147 1.27649V6.51076Z" fill="#5D5D5D"/>
<path d="M7.2688 18.7056L8.64273 20.4028L11.3094 17.7361" stroke="#FF4C0C" stroke-width="0.933253" stroke-linecap="round" stroke-linejoin="round"/>
<path d="M15.1895 19.0694H33.7814" stroke="#FF4C0C" stroke-width="1.40066" stroke-miterlimit="10"/>
<path d="M7.26904 25.7491L8.64298 27.4462L11.3096 24.7796" stroke="#FF4C0C" stroke-width="0.933253" stroke-linecap="round" stroke-linejoin="round"/>
<path d="M15.1895 26.1129H33.7814" stroke="#FF4C0C" stroke-width="1.40066" stroke-miterlimit="10"/>
<path d="M7.26904 32.7925L8.64298 34.4913L11.3096 31.823" stroke="#FF4C0C" stroke-width="0.933253" stroke-linecap="round" stroke-linejoin="round"/>
<path d="M15.1895 33.1563H33.7814" stroke="#FF4C0C" stroke-width="1.40066" stroke-miterlimit="10"/>
<path d="M7.26904 39.836L8.64298 41.5347L11.3096 38.8665" stroke="#FF4C0C" stroke-width="0.933253" stroke-linecap="round" stroke-linejoin="round"/>
<path d="M15.1895 40.1998H33.7814" stroke="#FF4C0C" stroke-width="1.40066" stroke-miterlimit="10"/>
<path d="M15.1895 47.2448H33.7814" stroke="#DCDDE0" stroke-width="1.40066" stroke-miterlimit="10"/>
<path d="M11.2299 47.0775C11.2299 48.1705 10.3432 49.0572 9.25021 49.0572C8.15723 49.0572 7.27051 48.1705 7.27051 47.0775C7.27051 45.9846 8.15723 45.0962 9.25021 45.0962C10.3432 45.0962 11.2299 45.9829 11.2299 47.0775Z" fill="#DEE1E3" stroke="#DEE1E3" stroke-width="0.933253" stroke-linecap="round" stroke-linejoin="round"/>
<path d="M28.802 55.011V49.067C28.802 47.4154 30.1532 46.0642 31.8048 46.0642H37.2486" fill="#F7F7F7"/>
</svg>
