<svg width="24" height="24" viewBox="0 0 24 24" fill="none" xmlns="http://www.w3.org/2000/svg">
<rect width="24" height="24" rx="4" fill="#FCD1D6"/>
<path fill-rule="evenodd" clip-rule="evenodd" d="M14 16.5C14 16.7761 13.7761 17 13.5 17L5.5 17C5.22386 17 5 16.7761 5 16.5L5 7.5C5 7.22386 5.22386 7 5.5 7L13.5 7C13.7761 7 14 7.22386 14 7.5L14 9.5C14 9.77614 14.2239 10 14.5 10C14.7761 10 15 9.77614 15 9.5L15 7.5C15 6.67157 14.3284 6 13.5 6L5.5 6C4.67157 6 4 6.67157 4 7.5L4 16.5C4 17.3284 4.67157 18 5.5 18L13.5 18C14.3284 18 15 17.3284 15 16.5L15 14.5C15 14.2239 14.7761 14 14.5 14C14.2239 14 14 14.2239 14 14.5L14 16.5Z" fill="#EE1B30"/>
<path fill-rule="evenodd" clip-rule="evenodd" d="M19.8536 12.3536C20.0488 12.1583 20.0488 11.8417 19.8536 11.6464L16.8536 8.64645C16.6583 8.45118 16.3417 8.45118 16.1464 8.64645C15.9512 8.84171 15.9512 9.15829 16.1464 9.35355L18.2929 11.5L9.5 11.5C9.22386 11.5 9 11.7239 9 12C9 12.2761 9.22386 12.5 9.5 12.5L18.2929 12.5L16.1464 14.6464C15.9512 14.8417 15.9512 15.1583 16.1464 15.3536C16.3417 15.5488 16.6583 15.5488 16.8536 15.3536L19.8536 12.3536Z" fill="#EE1B30"/>
</svg>
