<svg width="20" height="20" viewBox="0 0 20 20" fill="none" xmlns="http://www.w3.org/2000/svg">
<g id="material-symbols:filter-alt-outline">
<path id="Vector" d="M9.16675 16.6667C8.93064 16.6667 8.73286 16.5867 8.57342 16.4267C8.41342 16.2672 8.33342 16.0695 8.33342 15.8333V10.8333L3.50009 4.66668C3.29175 4.3889 3.26064 4.09723 3.40675 3.79168C3.55231 3.48612 3.80564 3.33334 4.16675 3.33334H15.8334C16.1945 3.33334 16.4481 3.48612 16.5943 3.79168C16.7398 4.09723 16.7084 4.3889 16.5001 4.66668L11.6668 10.8333V15.8333C11.6668 16.0695 11.587 16.2672 11.4276 16.4267C11.2676 16.5867 11.0695 16.6667 10.8334 16.6667H9.16675ZM10.0001 10.25L14.1251 5.00001H5.87509L10.0001 10.25Z" fill="#437FDA"/>
</g>
</svg>
