<svg width="67" height="30" viewBox="0 0 67 30" fill="none" xmlns="http://www.w3.org/2000/svg">
<path d="M61.3268 18.4541H0.0368652V23.9344H61.3268V18.4541Z" fill="#5B606B"/>
<path d="M61.3268 18.4541H0.0368652V21.2502H61.3268V18.4541Z" fill="#4D525B"/>
<path d="M53.4261 28.7448C55.6875 28.7448 57.5207 26.9116 57.5207 24.6502C57.5207 22.3888 55.6875 20.5556 53.4261 20.5556C51.1648 20.5556 49.3315 22.3888 49.3315 24.6502C49.3315 26.9116 51.1648 28.7448 53.4261 28.7448Z" fill="#323948"/>
<path d="M53.4258 27.1063C54.7823 27.1063 55.8819 26.0067 55.8819 24.6502C55.8819 23.2938 54.7823 22.1941 53.4258 22.1941C52.0694 22.1941 50.9697 23.2938 50.9697 24.6502C50.9697 26.0067 52.0694 27.1063 53.4258 27.1063Z" fill="white"/>
<path d="M53.4266 26.1847C54.2741 26.1847 54.9611 25.4977 54.9611 24.6502C54.9611 23.8027 54.2741 23.1157 53.4266 23.1157C52.5791 23.1157 51.8921 23.8027 51.8921 24.6502C51.8921 25.4977 52.5791 26.1847 53.4266 26.1847Z" fill="#323948"/>
<path d="M17.6624 28.7448C19.9238 28.7448 21.757 26.9116 21.757 24.6502C21.757 22.3888 19.9238 20.5556 17.6624 20.5556C15.4011 20.5556 13.5679 22.3888 13.5679 24.6502C13.5679 26.9116 15.4011 28.7448 17.6624 28.7448Z" fill="#323948"/>
<path d="M17.6626 27.1063C19.0191 27.1063 20.1187 26.0067 20.1187 24.6502C20.1187 23.2938 19.0191 22.1941 17.6626 22.1941C16.3062 22.1941 15.2065 23.2938 15.2065 24.6502C15.2065 26.0067 16.3062 27.1063 17.6626 27.1063Z" fill="white"/>
<path d="M17.6624 26.1847C18.5099 26.1847 19.1969 25.4977 19.1969 24.6502C19.1969 23.8027 18.5099 23.1157 17.6624 23.1157C16.8149 23.1157 16.1279 23.8027 16.1279 24.6502C16.1279 25.4977 16.8149 26.1847 17.6624 26.1847Z" fill="#323948"/>
<path d="M11.3522 26.2171C12.2176 24.1279 11.2255 21.7327 9.13622 20.8673C7.04699 20.0019 4.6518 20.994 3.78641 23.0833C2.92102 25.1725 3.91314 27.5677 6.00237 28.4331C8.09161 29.2985 10.4868 28.3063 11.3522 26.2171Z" fill="#323948"/>
<path d="M7.5696 27.1063C8.92605 27.1063 10.0257 26.0067 10.0257 24.6502C10.0257 23.2938 8.92605 22.1941 7.5696 22.1941C6.21315 22.1941 5.11353 23.2938 5.11353 24.6502C5.11353 26.0067 6.21315 27.1063 7.5696 27.1063Z" fill="white"/>
<path d="M7.56989 26.1847C8.41736 26.1847 9.10437 25.4977 9.10437 24.6502C9.10437 23.8027 8.41736 23.1157 7.56989 23.1157C6.72242 23.1157 6.0354 23.8027 6.0354 24.6502C6.0354 25.4977 6.72242 26.1847 7.56989 26.1847Z" fill="#323948"/>
<path d="M65.7719 12.6192V24.7274H58.718V22.3641C58.718 20.2302 56.9867 18.4988 54.8516 18.4988H47.1064V5.07544H63.0787L65.7719 12.6192Z" fill="#F04925"/>
<path d="M53.9467 5.07544H53.6011V18.4988H53.9467V5.07544Z" fill="#CE2C11"/>
<path d="M52.692 6.37282H48.1355V12.5689H52.692V6.37282Z" fill="#231F20"/>
<path d="M55.5566 6.37282V12.5689H63.6966L61.9854 6.37282H55.5566Z" fill="#231F20"/>
<path d="M63.0787 5.07543H47.1064V3.35976H61.0298C61.891 3.35976 62.6593 3.90108 62.949 4.71194L63.0787 5.07543Z" fill="#CE2C11"/>
<path d="M46.1511 0H0.000244141V18.4921H46.1511V0Z" fill="#0F1B86"/>
<path d="M45.1228 1.02895H44.0547V17.4632H45.1228V1.02895Z" fill="#1C2AA3"/>
<path d="M42.7314 1.02895H41.6633V17.4632H42.7314V1.02895Z" fill="#1C2AA3"/>
<path d="M40.3411 1.02895H39.2729V17.4632H40.3411V1.02895Z" fill="#1C2AA3"/>
<path d="M37.9512 1.02895H36.8831V17.4632H37.9512V1.02895Z" fill="#1C2AA3"/>
<path d="M35.5605 1.02895H34.4924V17.4632H35.5605V1.02895Z" fill="#1C2AA3"/>
<path d="M33.1706 1.02895H32.1025V17.4632H33.1706V1.02895Z" fill="#1C2AA3"/>
<path d="M30.7815 1.02895H29.7134V17.4632H30.7815V1.02895Z" fill="#1C2AA3"/>
<path d="M28.3899 1.02895H27.3218V17.4632H28.3899V1.02895Z" fill="#1C2AA3"/>
<path d="M25.9997 1.02895H24.9316V17.4632H25.9997V1.02895Z" fill="#1C2AA3"/>
<path d="M23.6098 1.02895H22.5417V17.4632H23.6098V1.02895Z" fill="#1C2AA3"/>
<path d="M21.2195 1.02895H20.1514V17.4632H21.2195V1.02895Z" fill="#1C2AA3"/>
<path d="M18.8298 1.02895H17.7617V17.4632H18.8298V1.02895Z" fill="#1C2AA3"/>
<path d="M16.4399 1.02895H15.3718V17.4632H16.4399V1.02895Z" fill="#1C2AA3"/>
<path d="M14.0493 1.02895H12.9812V17.4632H14.0493V1.02895Z" fill="#1C2AA3"/>
<path d="M11.6579 1.02895H10.5898V17.4632H11.6579V1.02895Z" fill="#1C2AA3"/>
<path d="M9.26805 1.02895H8.19995V17.4632H9.26805V1.02895Z" fill="#1C2AA3"/>
<path d="M6.87718 1.02895H5.80908V17.4632H6.87718V1.02895Z" fill="#1C2AA3"/>
<path d="M4.48802 1.02895H3.41992V17.4632H4.48802V1.02895Z" fill="#1C2AA3"/>
<path d="M2.09788 1.02895H1.02979V17.4632H2.09788V1.02895Z" fill="#1C2AA3"/>
<path d="M60.1408 13.9692H57.7787C57.5921 13.9692 57.4409 14.1204 57.4409 14.307V14.6112C57.4409 14.7977 57.5921 14.9489 57.7787 14.9489H60.1408C60.3274 14.9489 60.4786 14.7977 60.4786 14.6112V14.307C60.4786 14.1204 60.3274 13.9692 60.1408 13.9692Z" fill="#231F20"/>
<path d="M60.0396 20.8867H66.0254C66.2301 20.8867 66.3967 21.0533 66.3967 21.258V23.6604C66.3967 24.6435 65.5982 25.4421 64.6151 25.4421H60.0407V20.8856L60.0396 20.8867Z" fill="#5B606B"/>
<path d="M47.7483 19.3186H36.4712V24.6435H47.7483V19.3186Z" fill="#5B606B"/>
<path d="M47.7481 23.0408H36.4709V24.6446H47.7481V23.0408Z" fill="#4D525B"/>
<path d="M47.7483 19.3186H36.4712V20.9225H47.7483V19.3186Z" fill="#6E757F"/>
<path d="M37.7844 19.3187V20.9225V23.0408V24.6435H38.6971V23.0408V20.9225V19.3187H37.7844Z" fill="#323948"/>
<path d="M44.646 19.3187V20.9225V23.0408V24.6435H45.5586V23.0408V20.9225V19.3187H44.646Z" fill="#323948"/>
<path d="M65.7718 15.8235V19.6542H64.2374C63.6491 19.6542 63.1726 19.1777 63.1726 18.5894V15.8235H65.7718Z" fill="#1C2AA3"/>
<g clip-path="url(#clip0_96_31313)">
<path d="M17.7163 2.07048C17.8145 2.00901 17.9676 2.0304 18.0267 2.1378C18.0716 2.22335 18.0736 2.32376 18.0879 2.41765C18.0981 2.41922 18.1191 2.42238 18.1295 2.42395C18.1282 2.30508 18.1282 2.1862 18.1293 2.06733C18.1943 2.06755 18.2594 2.0671 18.3246 2.06575C18.3246 2.18102 18.3266 2.2963 18.3255 2.41157C18.3353 2.58177 18.0992 2.6527 17.979 2.56331C17.8565 2.48564 17.8926 2.31881 17.8421 2.19993C17.802 2.29945 17.7982 2.40977 17.7572 2.5086C17.6575 2.6554 17.3872 2.62365 17.3493 2.44084C17.3413 2.31633 17.3487 2.19138 17.3462 2.06665C17.4135 2.0671 17.4809 2.06733 17.5484 2.06665C17.5495 2.18485 17.549 2.30327 17.5482 2.42148C17.5571 2.4217 17.5749 2.4226 17.5838 2.42305C17.6163 2.30395 17.5981 2.14387 17.7163 2.07048Z" fill="white"/>
<path d="M16.869 2.50546C16.9979 2.50861 17.1278 2.49848 17.2562 2.51108C17.4096 2.56174 17.4408 2.79341 17.3192 2.89405C17.2288 2.9724 17.0981 2.94336 16.9955 2.99537C17.1046 3.03837 17.2422 3.01856 17.331 3.10636C17.4442 3.21465 17.4007 3.45803 17.2353 3.48235C17.1131 3.48955 16.9904 3.48235 16.8681 3.4864C16.8688 3.41773 16.869 3.34906 16.8693 3.28062C16.9913 3.27589 17.1162 3.29638 17.236 3.26599C17.1498 3.22816 17.0559 3.22231 16.9659 3.20047C16.7915 3.13833 16.8007 2.83439 16.9793 2.7826C17.067 2.76302 17.1583 2.75762 17.2427 2.72204C17.1197 2.69773 16.9942 2.71214 16.8699 2.71101C16.869 2.64234 16.869 2.5739 16.869 2.50546Z" fill="white"/>
<path d="M18.3131 2.83665C18.238 2.72228 18.3006 2.53023 18.4406 2.50839C18.5646 2.50096 18.6891 2.50772 18.8134 2.50569C18.8125 2.57391 18.8122 2.64213 18.8118 2.71012C18.6842 2.71462 18.5546 2.69548 18.4286 2.7225C18.5199 2.76235 18.6214 2.75852 18.7154 2.78712C18.8447 2.84228 18.877 3.02262 18.8009 3.13294C18.7138 3.24843 18.5506 3.20588 18.4342 3.26802C18.5584 3.29571 18.6869 3.27567 18.8131 3.28153C18.8125 3.34952 18.8125 3.41729 18.8129 3.48528C18.6965 3.48371 18.5802 3.48799 18.464 3.48393C18.3086 3.48641 18.2333 3.27095 18.3135 3.15185C18.3825 3.02014 18.5515 3.03702 18.674 3.00416C18.6671 2.9956 18.653 2.97871 18.6459 2.97038C18.529 2.9553 18.3754 2.95935 18.3131 2.83665Z" fill="white"/>
<path d="M17.9027 3.50014C17.9571 3.44048 18.0263 3.38194 18.1125 3.39005C18.1971 3.38351 18.2648 3.44183 18.3207 3.49856C18.3282 3.63793 18.3256 3.77751 18.3244 3.91688C18.2655 3.92048 18.206 3.92521 18.1472 3.9189C18.1198 3.90877 18.1321 3.875 18.1283 3.85316C18.1267 3.75207 18.133 3.65076 18.1225 3.54989C18.0348 3.64626 18.0984 3.81894 17.9851 3.90292C17.8847 3.98982 17.7164 3.96528 17.6474 3.85113C17.6115 3.7604 17.6021 3.66179 17.583 3.56678L17.5478 3.56948C17.5483 3.68746 17.5492 3.80521 17.5472 3.92318C17.4794 3.92206 17.4122 3.91935 17.3452 3.9135C17.3499 3.7935 17.3412 3.67328 17.3492 3.5535C17.3784 3.4031 17.5792 3.34051 17.6968 3.42809C17.8179 3.50599 17.7863 3.67282 17.8388 3.79102C17.8731 3.69736 17.8852 3.59785 17.9027 3.50014Z" fill="white"/>
<path d="M15.2777 2.91875C15.5322 2.82442 15.8149 2.79673 16.079 2.86674C16.2705 2.90839 16.4658 3.00476 16.5669 3.18239C16.6109 3.25084 16.6123 3.33549 16.6176 3.41452C16.4052 3.41317 16.1926 3.41699 15.9802 3.41249C15.955 3.20986 15.6755 3.18127 15.5518 3.306C15.4981 3.36814 15.5246 3.47283 15.6005 3.50254C15.8815 3.64101 16.2073 3.68063 16.4662 3.86615C16.5711 3.93864 16.6372 4.05955 16.6472 4.1872C16.6515 4.36754 16.554 4.54428 16.4019 4.63794C16.1888 4.77212 15.9287 4.78968 15.6842 4.78541C15.4344 4.77572 15.1605 4.72755 14.9804 4.53617C14.8735 4.42968 14.8335 4.27478 14.8403 4.12641C15.0539 4.12619 15.2676 4.12551 15.4814 4.12686C15.4821 4.23336 15.5473 4.33782 15.6502 4.36979C15.7497 4.39276 15.8688 4.39051 15.945 4.31148C15.9973 4.2705 15.9993 4.19441 15.9826 4.13497C15.9051 4.04604 15.7831 4.02307 15.6778 3.98435C15.4485 3.90938 15.1986 3.85737 15.0145 3.68851C14.894 3.57932 14.8357 3.39335 14.9056 3.24025C14.9722 3.08085 15.1265 2.98404 15.2777 2.91875Z" fill="white"/>
<path d="M2.10858 4.71989C2.1088 4.10301 2.10991 3.48589 2.10791 2.86877C2.41073 2.87035 2.71354 2.8681 3.01636 2.8699C3.17244 3.28146 3.31873 3.69662 3.47637 4.10728C3.63134 3.6937 3.80412 3.28664 3.95241 2.8708C4.24677 2.86765 4.5409 2.8699 4.83526 2.86968C4.83459 3.48612 4.83503 4.10278 4.83503 4.71922C4.64778 4.71967 4.46074 4.71832 4.27349 4.71989C4.27126 4.24732 4.27905 3.77452 4.26993 3.30217C4.09736 3.77722 3.89853 4.24259 3.72619 4.71764C3.54807 4.72102 3.36972 4.71832 3.19159 4.71899C3.01925 4.2471 2.834 3.7797 2.67079 3.30442C2.65855 3.77542 2.66834 4.24755 2.66567 4.71899C2.47997 4.72012 2.29428 4.71809 2.10858 4.71989Z" fill="white"/>
<path d="M5.11861 4.7199C5.11771 4.10301 5.11861 3.48612 5.11816 2.86923C5.65922 2.86945 6.2005 2.86923 6.74157 2.86923C6.74157 2.99058 6.74068 3.11171 6.74201 3.23306C6.39287 3.23329 6.04377 3.23329 5.69463 3.23306C5.69463 3.36409 5.69307 3.4949 5.69552 3.62593C5.9941 3.62436 6.2929 3.62638 6.59148 3.62481C6.59125 3.73963 6.59103 3.85445 6.59192 3.96927C6.29245 3.96973 5.99321 3.96927 5.69395 3.9695C5.6944 4.09738 5.6944 4.22526 5.69373 4.35314C6.04288 4.35337 6.39198 4.35314 6.74112 4.35337C6.74135 4.47517 6.74135 4.5972 6.74157 4.719C6.2005 4.71967 5.65967 4.7181 5.11861 4.7199Z" fill="white"/>
<path d="M6.99731 2.86989C7.3322 2.86877 7.66732 2.86877 8.00221 2.86989C8.16517 2.87507 8.34306 2.87665 8.47979 2.97999C8.71382 3.16551 8.71716 3.564 8.50296 3.76641C8.43791 3.82967 8.35754 3.87358 8.27472 3.90802C8.39608 3.96836 8.48157 4.08341 8.5341 4.20656C8.60516 4.37767 8.6706 4.55103 8.7454 4.72033C8.56573 4.71741 8.38583 4.72169 8.20616 4.71764C8.13777 4.54788 8.06208 4.38127 7.99196 4.21219C7.93894 4.08994 7.8265 3.99245 7.69467 3.97174C7.63078 3.96656 7.56668 3.96949 7.50274 3.96904C7.50319 4.21962 7.50319 4.46998 7.50297 4.72033C7.33443 4.71786 7.1659 4.72033 6.99731 4.71831C6.99798 4.10232 6.99776 3.48611 6.99731 2.86989ZM7.50319 3.23305C7.50319 3.36408 7.50252 3.49489 7.50364 3.62569C7.63257 3.623 7.76172 3.6302 7.89065 3.62209C7.97703 3.61129 8.08079 3.5971 8.12998 3.5147C8.17208 3.42892 8.1547 3.29361 8.05384 3.25939C7.87461 3.20963 7.68625 3.24273 7.50319 3.23305Z" fill="white"/>
<path d="M8.85059 4.71943C9.10867 4.10276 9.36715 3.48633 9.62408 2.86899C9.83806 2.86921 10.052 2.86966 10.2662 2.86899C10.5277 3.48633 10.7924 4.10231 11.0563 4.71875C10.8672 4.71988 10.6782 4.71875 10.4891 4.7192C10.4451 4.5875 10.4025 4.45534 10.3589 4.32363C10.089 4.32228 9.81917 4.32228 9.5495 4.31553C9.4943 4.44723 9.45086 4.58367 9.40658 4.71943C9.22129 4.71898 9.03583 4.7192 8.85059 4.71943ZM9.66952 3.97218C9.8561 3.97489 10.0427 3.97354 10.2295 3.97308C10.1353 3.72498 10.0451 3.47507 9.96164 3.22314C9.86211 3.47192 9.77217 3.72453 9.66952 3.97218Z" fill="white"/>
<path d="M10.8833 3.23439C10.8833 3.11259 10.8835 2.99079 10.8828 2.86899C11.4393 2.86966 11.9957 2.86899 12.5521 2.86944C12.5512 2.99079 12.5516 3.11236 12.5521 3.23372C12.3738 3.23282 12.1956 3.23327 12.0175 3.23327C12.017 3.7288 12.0173 4.22434 12.0173 4.71988C11.824 4.71853 11.631 4.71943 11.4377 4.7192C11.4386 4.22389 11.4375 3.72858 11.4381 3.23327C11.2531 3.23372 11.0683 3.23169 10.8833 3.23439Z" fill="white"/>
<path d="M12.7627 2.86966C12.9549 2.86899 13.147 2.86899 13.3394 2.86944C13.3392 3.23214 13.3381 3.59507 13.3399 3.95777C13.347 4.08656 13.3695 4.23538 13.4797 4.31755C13.5741 4.39207 13.701 4.38892 13.8141 4.37586C13.937 4.35898 14.0348 4.25384 14.0624 4.13406C14.0784 4.06201 14.0873 3.98794 14.0873 3.9141C14.0867 3.56558 14.0875 3.21728 14.0869 2.86899C14.2806 2.86989 14.4743 2.86854 14.6682 2.86966C14.6669 3.25511 14.6682 3.64055 14.6676 4.02599C14.6609 4.19237 14.6173 4.36776 14.4975 4.48888C14.3449 4.65706 14.1154 4.7192 13.899 4.74577C13.6302 4.76941 13.3472 4.7505 13.1038 4.62329C12.9043 4.51748 12.7698 4.30111 12.767 4.0726C12.7583 3.67185 12.7665 3.27064 12.7627 2.86966Z" fill="white"/>
</g>
<defs>
<clipPath id="clip0_96_31313">
<rect width="16.8883" height="3.24345" fill="white" transform="translate(2.05054 1.78949)"/>
</clipPath>
</defs>
</svg>
